#N canvas 263 206 1844 775 12;
#X declare -lib Gem;
#X obj 315 23 declare -lib Gem;
#X obj 113 107 gemwin;
#X msg 113 24 create \, 1;
#X msg 222 21 0 \, destroy;
#X obj 93 164 tgl 20 0 empty empty empty 0 -10 0 12 #fcfcfc #000000 #000000 0 1;
#X obj 93 188 gemhead;
#X floatatom 119 545 5 0 0 0 - - - 0;
#X floatatom 161 545 5 0 0 0 - - - 0;
#X floatatom 206 546 4 0 0 0 - - - 0;
#X obj 167 422 hsl 170 20 1 3600 0 0 empty empty empty -2 -10 0 12 #fcfcfc #000000 #000000 0 1;
#X obj 119 511 unpack f f f f;
#X floatatom 248 548 4 0 0 0 - - - 0;
#X obj 93 477 pix_film;
#X obj 93 575 pix_texture;
#X msg 232 83 dimen 1920 1080;
#X obj 92 604 rectangle 7 4;
#X msg 386 135 listen 9000;
#X obj 386 165 netreceive -u -b;
#X obj 386 195 oscparse;
#X obj 386 220 list trim;
#X obj 386 284 route value:0;
#X obj 330 361 * 3600;
#X obj 386 250 route track1;
#X text 420 364 number of frames. I make all of my MP4s be the same frame count but you can use unpack to procedurally pull total frame counts with the unpack object that is under pix_film;
#X text 152 255 going to need to enter the full file path for this open object here;
#X text 393 455 slider optional \, just for the sake of visual debugging;
#X obj 499 284 route value:1;
#X obj 609 286 route value:2;
#X obj 722 286 route value:3;
#X text 551 233 configured this as default upon loading. Make sure the "sending" is enabled on the VST.;
#X text 354 528 In general this setup is useful for playing back pre-rendered video without a play button but OSC jiggles the frame position. If you want to do other pD procedural graphics where the pix_XXXX objects are not used/not relevant \, this demo example will not work. Dont be scared to try messing with this - Look Mum No Computer \, probably.;
#X msg 126 215 open [full file path of MP4 here];
#X text 501 28 Most of this is standard GEM stuff that you can look up in youtube tutorials but I am putting this here so that n00bs can see the whole sausage being made.;
#X connect 2 0 1 0;
#X connect 3 0 1 0;
#X connect 4 0 5 0;
#X connect 5 0 12 0;
#X connect 9 0 12 1;
#X connect 10 0 6 0;
#X connect 10 1 7 0;
#X connect 10 2 8 0;
#X connect 10 3 11 0;
#X connect 12 0 13 0;
#X connect 12 1 10 0;
#X connect 13 0 15 0;
#X connect 14 0 1 0;
#X connect 16 0 17 0;
#X connect 17 0 18 0;
#X connect 18 0 19 0;
#X connect 19 0 22 0;
#X connect 20 0 21 0;
#X connect 21 0 9 0;
#X connect 22 0 20 0;
#X connect 22 0 26 0;
#X connect 22 0 27 0;
#X connect 22 0 28 0;
#X connect 31 0 12 0;
